<?xml version="1.0" encoding="UTF-8" standalone="no"?>
<svg
   xmlns:dc="http://purl.org/dc/elements/1.1/"
   xmlns:cc="http://creativecommons.org/ns#"
   xmlns:rdf="http://www.w3.org/1999/02/22-rdf-syntax-ns#"
   xmlns:svg="http://www.w3.org/2000/svg"
   xmlns="http://www.w3.org/2000/svg"
   id="svg3"
   version="1.1"
   viewBox="0 0 429.31625 163.08725"
   height="52.187923"
   width="137.38121">
  <metadata
     id="metadata9">
    <rdf:RDF>
      <cc:Work
         rdf:about="">
        <dc:format>image/svg+xml</dc:format>
        <dc:type
           rdf:resource="http://purl.org/dc/dcmitype/StillImage" />
        <dc:title></dc:title>
      </cc:Work>
    </rdf:RDF>
  </metadata>
  <defs
     id="defs7" />
  <g
     transform="matrix(0.12853238,0,0,0.12853238,-17.717356,158.82308)"
     id="g825">
    <text
       xml:space="preserve"
       style="font-style:normal;font-variant:normal;font-weight:normal;font-stretch:normal;font-size:208.33332825px;line-height:0;font-family:'Standard Symbols L';-inkscape-font-specification:'Standard Symbols L';letter-spacing:0px;word-spacing:0px;fill:#000000;fill-opacity:1;stroke:none;stroke-width:3.125"
       x="125.83333"
       y="-514.12378"
       id="text821"><tspan
         id="tspan819"
         x="125.83333"
         y="-514.12378"
         style="font-style:normal;font-variant:normal;font-weight:normal;font-stretch:normal;font-size:833.33331299px;font-family:'Latin Modern Sans Quotation';-inkscape-font-specification:'Latin Modern Sans Quotation';fill:#005aa0;fill-opacity:1;stroke-width:3.125">vikun  a</tspan></text>
    <path
       style="fill:none;stroke:#f0781e;stroke-width:37.49999619;stroke-linecap:round;stroke-linejoin:round;stroke-miterlimit:4;stroke-dasharray:none;stroke-opacity:1;paint-order:stroke fill markers"
       d="m 2322.4746,-708.51757 c 0,0 29.9885,-8.934 62.4193,-37.15949 26.6947,-23.23315 58.189,-54.8198 84.2975,-92.77063 48.7603,-125.59749 86.103,-182.10491 152.0979,-202.61581 51.8833,-14.6078 134.9973,-34.253 134.9973,-34.253 v 0"
       id="path863" />
    <path
       style="fill:none;stroke:#f0781e;stroke-width:37.49999619;stroke-linecap:round;stroke-linejoin:round;stroke-miterlimit:4;stroke-dasharray:none;stroke-opacity:1;paint-order:stroke fill markers"
       d="m 2322.4746,-708.51757 c 4.9677,20.8642 23.0486,131.33924 100.864,148.56875 43.4569,12.0211 197.8828,1.87625 230.0339,43.58961 42.4815,55.11616 57.2788,158.29461 18.1648,236.93081 -26.5883,53.4542 -79.8272,95.6369 -138.139,119.2813 -84.4046,34.2246 -132.8836,47.916 -125.1831,44.5875 -38.8901,4.2805 -47.8749,49.091596 -27.8047,78.176296 19.6003,28.4037 77.5165,36.77439995 89.8749,36.40389995"
       id="path869" />
    <path
       style="fill:none;stroke:#f0781e;stroke-width:37.49999619;stroke-linecap:butt;stroke-linejoin:miter;stroke-miterlimit:4;stroke-dasharray:none;stroke-opacity:1"
       d="m 2887.7578,-977.09079 c 20.2486,5.85051 61.7326,50.34022 68.8727,89.06824 13.5109,73.28388 70.1626,299.50278 63.5916,420.6033 -5.8776,108.32095 -54.5427,260.65805 -133.9704,334.23695 C 2745.518,-2.811804 2519.221,10.280096 2470.2854,-0.97940405"
       id="path871" />
    <path
       style="fill:none;stroke:#f0781e;stroke-width:37.49999619;stroke-linecap:round;stroke-linejoin:miter;stroke-miterlimit:4;stroke-dasharray:none;stroke-opacity:1"
       d="m 2808.6736,-916.14049 c -49.8252,-80.69238 -32.9916,-285.85631 13.5118,-287.25321 24.2263,-0.7277 100.7133,200.9099 49.957,271.63781"
       id="path873" />
    <path
       style="fill:none;stroke:#f0781e;stroke-width:37.49999619;stroke-linecap:butt;stroke-linejoin:miter;stroke-miterlimit:4;stroke-dasharray:none;stroke-opacity:1"
       d="m 2673.1726,-1055.6713 c 13.1246,-33.5983 3.6836,-150.3333 42.2008,-149.0813 23.2171,0.7547 69.4289,150.6066 60.0546,124.3989"
       id="path875" />
  </g>
</svg>
